<mxfile host="65bd71144e">
    <diagram id="HYrvO5Fi4T7YHE_qCGP1" name="Page-1">
        <mxGraphModel dx="1213" dy="304" grid="1" gridSize="5" guides="1" tooltips="1" connect="1" arrows="1" fold="1" page="1" pageScale="1" pageWidth="827" pageHeight="1169" background="#ffffff" math="0" shadow="0">
            <root>
                <mxCell id="0"/>
                <mxCell id="1" parent="0"/>
                <mxCell id="323" value="" style="rounded=1;whiteSpace=wrap;html=1;shadow=0;labelBackgroundColor=#FFFFFF;labelBorderColor=default;sketch=0;fontSize=23;fontColor=#000000;strokeColor=#000000;strokeWidth=2;fillColor=none;dashed=1;arcSize=4;" parent="1" vertex="1">
                    <mxGeometry x="-285" y="230" width="740" height="525" as="geometry"/>
                </mxCell>
                <mxCell id="249" value="&lt;font style=&quot;font-size: 18px&quot;&gt;ESP32-C3-MINI-1&lt;/font&gt;" style="rounded=0;whiteSpace=wrap;html=1;fontColor=#000000;fillColor=#FFFFFF;strokeColor=#000000;strokeWidth=2;" parent="1" vertex="1">
                    <mxGeometry x="-75" y="395" width="320" height="200" as="geometry"/>
                </mxCell>
                <mxCell id="251" value="" style="shape=mxgraph.signs.tech.usb;html=1;pointerEvents=1;verticalLabelPosition=middle;verticalAlign=middle;align=right;labelBackgroundColor=none;fontSize=18;rotation=-90;labelPosition=left;fontColor=#000000;strokeColor=#000000;fillColor=#000000;" parent="1" vertex="1">
                    <mxGeometry x="-380" y="405" width="30" height="73" as="geometry"/>
                </mxCell>
                <mxCell id="252" value="&lt;font style=&quot;font-size: 18px&quot;&gt;USB-to-USB Port&lt;/font&gt;" style="text;html=1;strokeColor=none;fillColor=none;align=center;verticalAlign=middle;whiteSpace=wrap;rounded=0;shadow=0;dashed=1;labelBackgroundColor=none;labelBorderColor=none;sketch=0;fontSize=23;fontColor=#000000;" parent="1" vertex="1">
                    <mxGeometry x="-480" y="468" width="215" height="30" as="geometry"/>
                </mxCell>
                <mxCell id="253" value="&lt;font style=&quot;font-size: 18px ; line-height: 1.6&quot;&gt;LED&lt;br&gt;WS2812C&lt;br&gt;&lt;/font&gt;" style="rounded=0;whiteSpace=wrap;html=1;fontColor=#000000;fillColor=#FFFFFF;strokeColor=#000000;strokeWidth=2;" parent="1" vertex="1">
                    <mxGeometry x="-275" y="535" width="140" height="60" as="geometry"/>
                </mxCell>
                <mxCell id="254" value="&lt;font style=&quot;font-size: 18px&quot;&gt;Reset&lt;br&gt;Button&lt;br&gt;&lt;/font&gt;" style="rounded=0;whiteSpace=wrap;html=1;fontColor=#000000;fillColor=#FFFFFF;strokeColor=#000000;strokeWidth=2;" parent="1" vertex="1">
                    <mxGeometry x="305" y="535" width="140" height="60" as="geometry"/>
                </mxCell>
                <mxCell id="259" value="&lt;font style=&quot;font-size: 18px ; line-height: 1.6&quot;&gt;LCD Sub-board Connector&lt;br&gt;CON6x2&lt;br&gt;&lt;/font&gt;" style="rounded=0;whiteSpace=wrap;html=1;fontColor=#000000;fillColor=#FFFFFF;strokeColor=#000000;strokeWidth=2;" parent="1" vertex="1">
                    <mxGeometry x="-75" y="245" width="140" height="90" as="geometry"/>
                </mxCell>
                <mxCell id="261" value="&lt;font style=&quot;font-size: 18px ; line-height: 1.6&quot;&gt;LDO&lt;br&gt;&lt;/font&gt;" style="rounded=0;whiteSpace=wrap;html=1;fontColor=#000000;fillColor=#FFFFFF;strokeColor=#000000;strokeWidth=2;" parent="1" vertex="1">
                    <mxGeometry x="-275" y="335" width="140" height="60" as="geometry"/>
                </mxCell>
                <mxCell id="265" value="&lt;font style=&quot;font-size: 18px ; line-height: 1.6&quot;&gt;RGB &amp;amp; UART&amp;nbsp;&lt;br&gt;Expander I/O&lt;br&gt;CON4x2&lt;br&gt;&lt;/font&gt;" style="rounded=0;whiteSpace=wrap;html=1;fontColor=#000000;fillColor=#FFFFFF;strokeColor=#000000;strokeWidth=2;" parent="1" vertex="1">
                    <mxGeometry x="105" y="245" width="140" height="90" as="geometry"/>
                </mxCell>
                <mxCell id="271" value="" style="endArrow=classic;html=1;fontSize=18;fontColor=#000000;strokeColor=#000000;entryX=0;entryY=0.125;entryDx=0;entryDy=0;entryPerimeter=0;startArrow=classic;startFill=1;" parent="1" edge="1">
                    <mxGeometry width="50" height="50" relative="1" as="geometry">
                        <mxPoint x="-275" y="470" as="sourcePoint"/>
                        <mxPoint x="-75" y="470" as="targetPoint"/>
                    </mxGeometry>
                </mxCell>
                <mxCell id="273" value="&lt;span style=&quot;color: rgb(0 , 0 , 0) ; font-size: 14px&quot;&gt;USB_D+/D-&lt;/span&gt;" style="edgeLabel;html=1;align=center;verticalAlign=middle;resizable=0;points=[];labelBackgroundColor=none;" parent="271" vertex="1" connectable="0">
                    <mxGeometry x="0.0901" y="1" relative="1" as="geometry">
                        <mxPoint x="-5" y="-11" as="offset"/>
                    </mxGeometry>
                </mxCell>
                <mxCell id="274" value="" style="endArrow=none;html=1;fontSize=18;fontColor=#000000;strokeColor=#000000;startArrow=none;startFill=0;endFill=0;" parent="1" edge="1">
                    <mxGeometry width="50" height="50" relative="1" as="geometry">
                        <mxPoint x="-275" y="445" as="sourcePoint"/>
                        <mxPoint x="-105" y="445" as="targetPoint"/>
                    </mxGeometry>
                </mxCell>
                <mxCell id="275" value="&lt;span style=&quot;color: rgb(0 , 0 , 0) ; font-size: 14px&quot;&gt;5V&lt;/span&gt;" style="edgeLabel;html=1;align=center;verticalAlign=middle;resizable=0;points=[];labelBackgroundColor=none;" parent="274" vertex="1" connectable="0">
                    <mxGeometry x="0.0901" y="1" relative="1" as="geometry">
                        <mxPoint x="-5" y="-11" as="offset"/>
                    </mxGeometry>
                </mxCell>
                <mxCell id="277" value="" style="endArrow=none;html=1;strokeColor=#000000;exitX=1;exitY=0.5;exitDx=0;exitDy=0;" parent="1" source="261" edge="1">
                    <mxGeometry width="50" height="50" relative="1" as="geometry">
                        <mxPoint x="-125" y="365" as="sourcePoint"/>
                        <mxPoint x="205" y="365" as="targetPoint"/>
                    </mxGeometry>
                </mxCell>
                <mxCell id="278" value="" style="endArrow=classic;html=1;strokeColor=#000000;entryX=0.713;entryY=1.022;entryDx=0;entryDy=0;entryPerimeter=0;" parent="1" target="265" edge="1">
                    <mxGeometry width="50" height="50" relative="1" as="geometry">
                        <mxPoint x="205" y="365" as="sourcePoint"/>
                        <mxPoint x="160" y="355" as="targetPoint"/>
                    </mxGeometry>
                </mxCell>
                <mxCell id="279" value="" style="endArrow=classic;html=1;strokeColor=#000000;entryX=0.714;entryY=1.02;entryDx=0;entryDy=0;entryPerimeter=0;" parent="1" target="259" edge="1">
                    <mxGeometry width="50" height="50" relative="1" as="geometry">
                        <mxPoint x="25" y="365" as="sourcePoint"/>
                        <mxPoint x="24.999999999999943" y="340.0000000000002" as="targetPoint"/>
                    </mxGeometry>
                </mxCell>
                <mxCell id="280" value="" style="endArrow=classic;html=1;fontSize=18;fontColor=#000000;strokeColor=#000000;startArrow=classic;startFill=1;entryX=0.284;entryY=1.023;entryDx=0;entryDy=0;entryPerimeter=0;exitX=0.123;exitY=-0.011;exitDx=0;exitDy=0;exitPerimeter=0;" parent="1" source="249" target="259" edge="1">
                    <mxGeometry width="50" height="50" relative="1" as="geometry">
                        <mxPoint x="-35" y="390" as="sourcePoint"/>
                        <mxPoint x="-35.37999999999988" y="343.9000000000001" as="targetPoint"/>
                    </mxGeometry>
                </mxCell>
                <mxCell id="281" value="&lt;span style=&quot;color: rgb(0 , 0 , 0) ; font-size: 14px&quot;&gt;IO0-2, 5, 7, &lt;br&gt;18-19, 22-23&amp;nbsp;&lt;br&gt;&lt;/span&gt;" style="edgeLabel;html=1;align=center;verticalAlign=middle;resizable=0;points=[];labelBackgroundColor=none;" parent="280" vertex="1" connectable="0">
                    <mxGeometry x="0.0901" y="1" relative="1" as="geometry">
                        <mxPoint x="18" y="56" as="offset"/>
                    </mxGeometry>
                </mxCell>
                <mxCell id="282" value="" style="endArrow=classic;html=1;strokeColor=#000000;entryX=1;entryY=0.75;entryDx=0;entryDy=0;rounded=0;" parent="1" target="261" edge="1">
                    <mxGeometry width="50" height="50" relative="1" as="geometry">
                        <mxPoint x="-105" y="445" as="sourcePoint"/>
                        <mxPoint x="-105.00000000000018" y="394.9999999999998" as="targetPoint"/>
                        <Array as="points">
                            <mxPoint x="-105" y="380"/>
                        </Array>
                    </mxGeometry>
                </mxCell>
                <mxCell id="283" value="" style="endArrow=classic;html=1;rounded=0;strokeColor=#000000;entryX=1;entryY=0.25;entryDx=0;entryDy=0;" parent="1" target="253" edge="1">
                    <mxGeometry width="50" height="50" relative="1" as="geometry">
                        <mxPoint x="-105" y="445" as="sourcePoint"/>
                        <mxPoint x="-105" y="465" as="targetPoint"/>
                        <Array as="points">
                            <mxPoint x="-105" y="550"/>
                        </Array>
                    </mxGeometry>
                </mxCell>
                <mxCell id="284" value="" style="endArrow=none;startArrow=classic;html=1;rounded=0;strokeColor=#000000;exitX=1;exitY=0.75;exitDx=0;exitDy=0;entryX=0;entryY=0.925;entryDx=0;entryDy=0;entryPerimeter=0;endFill=0;" parent="1" source="253" target="249" edge="1">
                    <mxGeometry width="50" height="50" relative="1" as="geometry">
                        <mxPoint x="25" y="520" as="sourcePoint"/>
                        <mxPoint x="-80" y="580" as="targetPoint"/>
                    </mxGeometry>
                </mxCell>
                <mxCell id="287" value="" style="endArrow=classic;html=1;fontSize=18;fontColor=#000000;strokeColor=#000000;entryX=0;entryY=0.125;entryDx=0;entryDy=0;entryPerimeter=0;startArrow=classic;startFill=1;exitX=0.188;exitY=-0.009;exitDx=0;exitDy=0;exitPerimeter=0;" parent="1" edge="1">
                    <mxGeometry width="50" height="50" relative="1" as="geometry">
                        <mxPoint x="144.3900000000003" y="394.0999999999999" as="sourcePoint"/>
                        <mxPoint x="144.23000000000022" y="335.9000000000001" as="targetPoint"/>
                    </mxGeometry>
                </mxCell>
                <mxCell id="288" value="&lt;span style=&quot;color: rgb(0 , 0 , 0) ; font-size: 14px&quot;&gt;TXD0, RXD0, EN, IO9&lt;br&gt;&lt;/span&gt;" style="edgeLabel;html=1;align=center;verticalAlign=middle;resizable=0;points=[];labelBackgroundColor=none;" parent="287" vertex="1" connectable="0">
                    <mxGeometry x="0.0901" y="1" relative="1" as="geometry">
                        <mxPoint x="1" y="48" as="offset"/>
                    </mxGeometry>
                </mxCell>
                <mxCell id="291" value="" style="endArrow=classic;html=1;rounded=0;fontSize=14;fontColor=#000000;strokeColor=#000000;exitX=0;exitY=0.5;exitDx=0;exitDy=0;entryX=1.003;entryY=0.151;entryDx=0;entryDy=0;entryPerimeter=0;" parent="1" source="254" edge="1">
                    <mxGeometry width="50" height="50" relative="1" as="geometry">
                        <mxPoint x="304.04" y="564.79" as="sourcePoint"/>
                        <mxPoint x="245.00000000000006" y="564.9900000000002" as="targetPoint"/>
                    </mxGeometry>
                </mxCell>
                <mxCell id="294" value="EN" style="edgeLabel;html=1;align=center;verticalAlign=middle;resizable=0;points=[];fontSize=14;fontColor=#000000;labelBackgroundColor=none;" parent="291" vertex="1" connectable="0">
                    <mxGeometry x="0.4433" y="-2" relative="1" as="geometry">
                        <mxPoint x="-31" y="2" as="offset"/>
                    </mxGeometry>
                </mxCell>
                <mxCell id="296" value="" style="endArrow=classic;html=1;rounded=0;fontSize=14;fontColor=#000000;strokeColor=#000000;entryX=0.286;entryY=0.005;entryDx=0;entryDy=0;entryPerimeter=0;" parent="1" edge="1">
                    <mxGeometry width="50" height="50" relative="1" as="geometry">
                        <mxPoint x="-105" y="550" as="sourcePoint"/>
                        <mxPoint x="-34.960000000000036" y="655.4499999999999" as="targetPoint"/>
                        <Array as="points">
                            <mxPoint x="-105" y="625"/>
                            <mxPoint x="-35" y="625"/>
                        </Array>
                    </mxGeometry>
                </mxCell>
                <mxCell id="297" value="" style="endArrow=classic;startArrow=classic;html=1;rounded=0;fontSize=14;fontColor=#000000;strokeColor=#000000;" parent="1" edge="1">
                    <mxGeometry width="50" height="50" relative="1" as="geometry">
                        <mxPoint x="-15" y="655" as="sourcePoint"/>
                        <mxPoint x="-15" y="595" as="targetPoint"/>
                    </mxGeometry>
                </mxCell>
                <mxCell id="299" value="" style="endArrow=classic;html=1;rounded=0;fontSize=14;fontColor=#000000;strokeColor=#000000;entryX=0.57;entryY=-0.02;entryDx=0;entryDy=0;entryPerimeter=0;" parent="1" edge="1">
                    <mxGeometry width="50" height="50" relative="1" as="geometry">
                        <mxPoint x="205" y="365" as="sourcePoint"/>
                        <mxPoint x="4.7999999999999545" y="653.1999999999999" as="targetPoint"/>
                        <Array as="points">
                            <mxPoint x="275" y="365"/>
                            <mxPoint x="275" y="625"/>
                            <mxPoint x="5" y="625"/>
                        </Array>
                    </mxGeometry>
                </mxCell>
                <mxCell id="300" value="" style="endArrow=classic;startArrow=none;html=1;rounded=0;fontSize=14;fontColor=#000000;strokeColor=#000000;startFill=0;" parent="1" edge="1">
                    <mxGeometry width="50" height="50" relative="1" as="geometry">
                        <mxPoint x="174.65999999999977" y="655" as="sourcePoint"/>
                        <mxPoint x="174.65999999999977" y="595" as="targetPoint"/>
                    </mxGeometry>
                </mxCell>
                <mxCell id="302" value="&lt;span style=&quot;color: rgb(0 , 0 , 0) ; font-size: 14px&quot;&gt;5V&lt;/span&gt;" style="edgeLabel;html=1;align=center;verticalAlign=middle;resizable=0;points=[];labelBackgroundColor=none;" parent="1" vertex="1" connectable="0">
                    <mxGeometry x="-50" y="630" as="geometry">
                        <mxPoint y="5" as="offset"/>
                    </mxGeometry>
                </mxCell>
                <mxCell id="305" value="&lt;span style=&quot;color: rgb(0 , 0 , 0) ; font-size: 14px&quot;&gt;3.3V&lt;/span&gt;" style="edgeLabel;html=1;align=center;verticalAlign=middle;resizable=0;points=[];labelBackgroundColor=none;" parent="1" vertex="1" connectable="0">
                    <mxGeometry x="50" y="350" as="geometry">
                        <mxPoint x="-6" y="2" as="offset"/>
                    </mxGeometry>
                </mxCell>
                <mxCell id="306" value="&lt;span style=&quot;color: rgb(0 , 0 , 0) ; font-size: 14px&quot;&gt;3.3V&lt;/span&gt;" style="edgeLabel;html=1;align=center;verticalAlign=middle;resizable=0;points=[];labelBackgroundColor=none;" parent="1" vertex="1" connectable="0">
                    <mxGeometry x="230" y="350" as="geometry">
                        <mxPoint x="-6" y="2" as="offset"/>
                    </mxGeometry>
                </mxCell>
                <mxCell id="308" value="&lt;span style=&quot;color: rgb(0 , 0 , 0) ; font-size: 14px&quot;&gt;3.3V&lt;/span&gt;" style="edgeLabel;html=1;align=center;verticalAlign=middle;resizable=0;points=[];labelBackgroundColor=none;" parent="1" vertex="1" connectable="0">
                    <mxGeometry x="35" y="640" as="geometry">
                        <mxPoint x="-11" y="-4" as="offset"/>
                    </mxGeometry>
                </mxCell>
                <mxCell id="309" value="" style="shape=ellipse;fillColor=#000000;strokeColor=none;html=1;sketch=0;shadow=0;labelBackgroundColor=#FFFFFF;labelBorderColor=default;fontSize=20;fontColor=#000000;" parent="1" vertex="1">
                    <mxGeometry x="20" y="360" width="10" height="10" as="geometry"/>
                </mxCell>
                <mxCell id="317" value="" style="shape=ellipse;fillColor=#000000;strokeColor=none;html=1;sketch=0;shadow=0;labelBackgroundColor=#FFFFFF;labelBorderColor=default;fontSize=20;fontColor=#000000;" parent="1" vertex="1">
                    <mxGeometry x="200" y="360" width="10" height="10" as="geometry"/>
                </mxCell>
                <mxCell id="318" value="" style="shape=ellipse;fillColor=#000000;strokeColor=none;html=1;sketch=0;shadow=0;labelBackgroundColor=#FFFFFF;labelBorderColor=default;fontSize=20;fontColor=#000000;" parent="1" vertex="1">
                    <mxGeometry x="-110" y="440" width="10" height="10" as="geometry"/>
                </mxCell>
                <mxCell id="321" value="" style="shape=ellipse;fillColor=#000000;strokeColor=none;html=1;sketch=0;shadow=0;labelBackgroundColor=#FFFFFF;labelBorderColor=default;fontSize=20;fontColor=#000000;" parent="1" vertex="1">
                    <mxGeometry x="-110" y="545" width="10" height="10" as="geometry"/>
                </mxCell>
                <mxCell id="322" value="&lt;span style=&quot;color: rgb(0 , 0 , 0) ; font-size: 14px&quot;&gt;5V&lt;/span&gt;" style="edgeLabel;html=1;align=center;verticalAlign=middle;resizable=0;points=[];labelBackgroundColor=none;" parent="1" vertex="1" connectable="0">
                    <mxGeometry x="-115" y="540" as="geometry">
                        <mxPoint x="-1" as="offset"/>
                    </mxGeometry>
                </mxCell>
                <mxCell id="324" value="&lt;span style=&quot;color: rgb(0 , 0 , 0) ; font-size: 14px&quot;&gt;5V&lt;/span&gt;" style="edgeLabel;html=1;align=center;verticalAlign=middle;resizable=0;points=[];labelBackgroundColor=none;" parent="1" vertex="1" connectable="0">
                    <mxGeometry x="-115.00222222222217" y="370" as="geometry">
                        <mxPoint y="5" as="offset"/>
                    </mxGeometry>
                </mxCell>
                <mxCell id="325" value="&lt;span style=&quot;color: rgb(0 , 0 , 0) ; font-size: 14px&quot;&gt;3.3V&lt;/span&gt;" style="edgeLabel;html=1;align=center;verticalAlign=middle;resizable=0;points=[];labelBackgroundColor=none;" vertex="1" connectable="0" parent="1">
                    <mxGeometry x="-105" y="355" as="geometry">
                        <mxPoint x="-6" y="2" as="offset"/>
                    </mxGeometry>
                </mxCell>
                <mxCell id="326" value="&lt;font style=&quot;font-size: 18px ; line-height: 1.6&quot;&gt;RGB &amp;amp; UART&amp;nbsp;&lt;br&gt;Expander I/O&lt;br&gt;CON4x2&lt;br&gt;&lt;/font&gt;" style="rounded=0;whiteSpace=wrap;html=1;fontColor=#000000;fillColor=#FFFFFF;strokeColor=#000000;strokeWidth=2;" vertex="1" parent="1">
                    <mxGeometry x="-75" y="655" width="140" height="90" as="geometry"/>
                </mxCell>
                <mxCell id="327" value="&lt;span style=&quot;color: rgb(0 , 0 , 0) ; font-size: 14px&quot;&gt;&lt;br&gt;&lt;/span&gt;" style="edgeLabel;html=1;align=center;verticalAlign=middle;resizable=0;points=[];labelBackgroundColor=none;" vertex="1" connectable="0" parent="1">
                    <mxGeometry x="40.00203160271185" y="550.0028700542298" as="geometry"/>
                </mxCell>
                <mxCell id="330" value="&lt;span style=&quot;color: rgb(0, 0, 0); font-size: 14px;&quot;&gt;U0TXD, U0RXD, DOUT&lt;/span&gt;" style="text;html=1;strokeColor=none;fillColor=none;align=center;verticalAlign=middle;whiteSpace=wrap;rounded=0;" vertex="1" parent="1">
                    <mxGeometry x="-31" y="570" width="151" height="20" as="geometry"/>
                </mxCell>
                <mxCell id="333" value="&lt;span style=&quot;color: rgb(0, 0, 0); font-size: 14px;&quot;&gt;IO8&lt;/span&gt;" style="text;html=1;strokeColor=none;fillColor=none;align=center;verticalAlign=middle;whiteSpace=wrap;rounded=0;" vertex="1" parent="1">
                    <mxGeometry x="-72" y="570" width="35" height="20" as="geometry"/>
                </mxCell>
                <mxCell id="334" value="&lt;span style=&quot;color: rgb(0, 0, 0); font-size: 14px;&quot;&gt;IO18-19&lt;/span&gt;" style="text;html=1;strokeColor=none;fillColor=none;align=center;verticalAlign=middle;whiteSpace=wrap;rounded=0;" vertex="1" parent="1">
                    <mxGeometry x="-70" y="460" width="57.5" height="20" as="geometry"/>
                </mxCell>
                <mxCell id="335" value="&lt;font&gt;&lt;span style=&quot;font-size: 18px&quot;&gt;Rotary &lt;br&gt;Encoder Switch&lt;/span&gt;&lt;br&gt;&lt;/font&gt;" style="rounded=0;whiteSpace=wrap;html=1;fillColor=#FFFFFF;strokeColor=#000000;fontColor=#000000;strokeWidth=2;" vertex="1" parent="1">
                    <mxGeometry x="305" y="396.5" width="140" height="53.5" as="geometry"/>
                </mxCell>
                <mxCell id="336" value="&lt;font&gt;&lt;span style=&quot;font-size: 18px;&quot;&gt;PA&lt;/span&gt;&lt;br&gt;&lt;/font&gt;" style="rounded=0;whiteSpace=wrap;html=1;fillColor=#FFFFFF;strokeColor=#000000;fontColor=#000000;strokeWidth=2;" vertex="1" parent="1">
                    <mxGeometry x="305" y="465.75" width="140" height="53.5" as="geometry"/>
                </mxCell>
                <mxCell id="337" value="&lt;div style=&quot;&quot;&gt;&lt;span style=&quot;font-size: 18px; background-color: initial;&quot;&gt;IR Transmitter /&amp;nbsp;&lt;/span&gt;&lt;/div&gt;&lt;div style=&quot;&quot;&gt;&lt;span style=&quot;font-size: 18px;&quot;&gt;Receiver&lt;/span&gt;&lt;/div&gt;" style="rounded=0;whiteSpace=wrap;html=1;fontColor=#000000;fillColor=#FFFFFF;strokeColor=#000000;strokeWidth=2;align=center;" vertex="1" parent="1">
                    <mxGeometry x="105" y="655" width="140" height="90" as="geometry"/>
                </mxCell>
                <mxCell id="338" value="&lt;font color=&quot;#000000&quot;&gt;&lt;span style=&quot;font-size: 14px;&quot;&gt;IO4&lt;/span&gt;&lt;/font&gt;" style="text;html=1;strokeColor=none;fillColor=none;align=center;verticalAlign=middle;whiteSpace=wrap;rounded=0;" vertex="1" parent="1">
                    <mxGeometry x="144.75" y="570" width="60.5" height="20" as="geometry"/>
                </mxCell>
            </root>
        </mxGraphModel>
    </diagram>
</mxfile>